REM DIRINDEX 1\2,1\3,1\4
REM DIRNAME folder01,folder02,folder03,folder04
TITLE ""
FILE "107 107_Lesson 13_TOEFL_3900.mp3" MP3
  TRACK 01 AUDIO
    TITLE "4:cjc151_4664"
    INDEX 01 00:00:00
  TRACK 02 AUDIO
    TITLE "0:"
    INDEX 01 00:01:48
  TRACK 03 AUDIO
    TITLE "2:cjc151_4665"
    INDEX 01 00:02:30
  TRACK 04 AUDIO
    TITLE "0:"
    INDEX 01 00:03:25
  TRACK 05 AUDIO
    TITLE "3:cjc151_4666"
    INDEX 01 00:05:05
  TRACK 06 AUDIO
    TITLE "0:"
    INDEX 01 00:08:56
  TRACK 07 AUDIO
    TITLE "2:cjc151_4667"
    INDEX 01 00:10:35
  TRACK 08 AUDIO
    TITLE "0:"
    INDEX 01 00:11:35
  TRACK 09 AUDIO
    TITLE "3:cjc151_4668"
    INDEX 01 00:13:12
  TRACK 10 AUDIO
    TITLE "0:"
    INDEX 01 00:17:06
  TRACK 11 AUDIO
    TITLE "2:cjc151_4669"
    INDEX 01 00:18:60
  TRACK 12 AUDIO
    TITLE "0:"
    INDEX 01 00:19:54
  TRACK 13 AUDIO
    TITLE "3:cjc151_4670"
    INDEX 01 00:21:35
  TRACK 14 AUDIO
    TITLE "0:"
    INDEX 01 00:25:29
  TRACK 15 AUDIO
    TITLE "2:cjc151_4671"
    INDEX 01 00:27:06
  TRACK 16 AUDIO
    TITLE "0:"
    INDEX 01 00:28:06
  TRACK 17 AUDIO
    TITLE "3:cjc151_4672"
    INDEX 01 00:29:60
  TRACK 18 AUDIO
    TITLE "0:"
    INDEX 01 00:34:12
  TRACK 19 AUDIO
    TITLE "2:cjc151_4673"
    INDEX 01 00:35:66
  TRACK 20 AUDIO
    TITLE "0:"
    INDEX 01 00:37:01
  TRACK 21 AUDIO
    TITLE "3:cjc151_4674"
    INDEX 01 00:38:55
  TRACK 22 AUDIO
    TITLE "0:"
    INDEX 01 00:43:09
  TRACK 23 AUDIO
    TITLE "2:cjc151_4675"
    INDEX 01 00:44:61
  TRACK 24 AUDIO
    TITLE "0:"
    INDEX 01 00:46:00
  TRACK 25 AUDIO
    TITLE "3:cjc151_4676"
    INDEX 01 00:47:54
  TRACK 26 AUDIO
    TITLE "0:"
    INDEX 01 00:50:70
  TRACK 27 AUDIO
    TITLE "2:cjc151_4677"
    INDEX 01 00:52:49
  TRACK 28 AUDIO
    TITLE "0:"
    INDEX 01 00:53:60
  TRACK 29 AUDIO
    TITLE "3:cjc151_4678"
    INDEX 01 00:55:44
  TRACK 30 AUDIO
    TITLE "0:"
    INDEX 01 01:00:04
  TRACK 31 AUDIO
    TITLE "2:cjc151_4679"
    INDEX 01 01:01:58
  TRACK 32 AUDIO
    TITLE "0:"
    INDEX 01 01:03:10
  TRACK 33 AUDIO
    TITLE "3:cjc151_4680"
    INDEX 01 01:04:64
  TRACK 34 AUDIO
    TITLE "0:"
    INDEX 01 01:09:40
  TRACK 35 AUDIO
    TITLE "2:cjc151_4681"
    INDEX 01 01:11:25
  TRACK 36 AUDIO
    TITLE "0:"
    INDEX 01 01:12:26
  TRACK 37 AUDIO
    TITLE "3:cjc151_4682"
    INDEX 01 01:14:08
  TRACK 38 AUDIO
    TITLE "0:"
    INDEX 01 01:17:35
  TRACK 39 AUDIO
    TITLE "2:cjc151_4683"
    INDEX 01 01:19:09
  TRACK 40 AUDIO
    TITLE "0:"
    INDEX 01 01:20:24
  TRACK 41 AUDIO
    TITLE "3:cjc151_4684"
    INDEX 01 01:22:05
  TRACK 42 AUDIO
    TITLE "0:"
    INDEX 01 01:24:73
  TRACK 43 AUDIO
    TITLE "2:cjc151_4685"
    INDEX 01 01:26:52
  TRACK 44 AUDIO
    TITLE "0:"
    INDEX 01 01:27:63
  TRACK 45 AUDIO
    TITLE "3:cjc151_4686"
    INDEX 01 01:29:45
  TRACK 46 AUDIO
    TITLE "0:"
    INDEX 01 01:33:42
  TRACK 47 AUDIO
    TITLE "2:cjc151_4687"
    INDEX 01 01:35:22
  TRACK 48 AUDIO
    TITLE "0:"
    INDEX 01 01:36:33
  TRACK 49 AUDIO
    TITLE "3:cjc151_4688"
    INDEX 01 01:38:18
  TRACK 50 AUDIO
    TITLE "0:"
    INDEX 01 01:41:36
  TRACK 51 AUDIO
    TITLE "2:cjc151_4689"
    INDEX 01 01:43:15
  TRACK 52 AUDIO
    TITLE "0:"
    INDEX 01 01:44:24
  TRACK 53 AUDIO
    TITLE "3:cjc151_4690"
    INDEX 01 01:46:08
  TRACK 54 AUDIO
    TITLE "0:"
    INDEX 01 01:49:53
  TRACK 55 AUDIO
    TITLE "2:cjc151_4691"
    INDEX 01 01:51:38
  TRACK 56 AUDIO
    TITLE "0:"
    INDEX 01 01:52:53
  TRACK 57 AUDIO
    TITLE "3:cjc151_4692"
    INDEX 01 01:54:31
  TRACK 58 AUDIO
    TITLE "0:"
    INDEX 01 01:57:70
  TRACK 59 AUDIO
    TITLE "2:cjc151_4693"
    INDEX 01 01:59:57
  TRACK 60 AUDIO
    TITLE "0:"
    INDEX 01 02:00:61
  TRACK 61 AUDIO
    TITLE "3:cjc151_4694"
    INDEX 01 02:02:40
  TRACK 62 AUDIO
    TITLE "0:"
    INDEX 01 02:06:38
  TRACK 63 AUDIO
    TITLE "2:cjc151_4695"
    INDEX 01 02:08:17
  TRACK 64 AUDIO
    TITLE "0:"
    INDEX 01 02:09:22
  TRACK 65 AUDIO
    TITLE "3:cjc151_4696"
    INDEX 01 02:11:02
  TRACK 66 AUDIO
    TITLE "0:"
    INDEX 01 02:14:65
  TRACK 67 AUDIO
    TITLE "2:cjc151_4697"
    INDEX 01 02:16:52
  TRACK 68 AUDIO
    TITLE "0:"
    INDEX 01 02:17:69
  TRACK 69 AUDIO
    TITLE "3:cjc151_4698"
    INDEX 01 02:19:46
  TRACK 70 AUDIO
    TITLE "0:"
    INDEX 01 02:23:19
  TRACK 71 AUDIO
    TITLE "2:cjc151_4699"
    INDEX 01 02:24:73
  TRACK 72 AUDIO
    TITLE "0:"
    INDEX 01 02:26:44
  TRACK 73 AUDIO
    TITLE "3:cjc151_4700"
    INDEX 01 02:28:24
  TRACK 74 AUDIO
    TITLE "0:"
    INDEX 01 02:31:42
  TRACK 75 AUDIO
    TITLE "2:cjc151_4701"
    INDEX 01 02:33:21
  TRACK 76 AUDIO
    TITLE "0:"
    INDEX 01 02:34:22
  TRACK 77 AUDIO
    TITLE "3:cjc151_4702"
    INDEX 01 02:36:02
  TRACK 78 AUDIO
    TITLE "0:"
    INDEX 01 02:38:46
  TRACK 79 AUDIO
    TITLE "2:cjc151_4703"
    INDEX 01 02:40:23
  TRACK 80 AUDIO
    TITLE "0:"
    INDEX 01 02:41:36
  TRACK 81 AUDIO
    TITLE "3:cjc151_4704"
    INDEX 01 02:43:14
  TRACK 82 AUDIO
    TITLE "0:"
    INDEX 01 02:47:21
  TRACK 83 AUDIO
    TITLE "2:cjc151_4705"
    INDEX 01 02:48:72
  TRACK 84 AUDIO
    TITLE "0:"
    INDEX 01 02:49:73
  TRACK 85 AUDIO
    TITLE "3:cjc151_4706"
    INDEX 01 02:51:50
  TRACK 86 AUDIO
    TITLE "0:"
    INDEX 01 02:55:09
  TRACK 87 AUDIO
    TITLE "2:cjc151_4707"
    INDEX 01 02:56:63
  TRACK 88 AUDIO
    TITLE "0:"
    INDEX 01 02:57:61
  TRACK 89 AUDIO
    TITLE "3:cjc151_4708"
    INDEX 01 02:59:42
  TRACK 90 AUDIO
    TITLE "0:"
    INDEX 01 03:03:03
